<mxfile host="app.diagrams.net" agent="Mozilla/5.0 (Windows NT 10.0; Win64; x64) AppleWebKit/537.36 (KHTML, like Gecko) Chrome/130.0.0.0 Safari/537.36" version="24.8.6">
  <diagram name="Page-1" id="jv8_sD9KRyMtdzknraal">
    <mxGraphModel dx="1363" dy="917" grid="1" gridSize="10" guides="1" tooltips="1" connect="1" arrows="1" fold="1" page="0" pageScale="1" pageWidth="850" pageHeight="1100" math="0" shadow="0">
      <root>
        <mxCell id="0" />
        <mxCell id="1" parent="0" />
        <mxCell id="dsTHRRMyEqFspH3dVMrk-333" value="" style="rounded=0;whiteSpace=wrap;html=1;fillColor=#B3B3B3;" vertex="1" parent="1">
          <mxGeometry x="460" y="330" width="260" height="290" as="geometry" />
        </mxCell>
        <mxCell id="dsTHRRMyEqFspH3dVMrk-332" value="" style="rounded=0;whiteSpace=wrap;html=1;fillColor=#FF7591;" vertex="1" parent="1">
          <mxGeometry y="320" width="430" height="290" as="geometry" />
        </mxCell>
        <mxCell id="dsTHRRMyEqFspH3dVMrk-330" value="" style="rounded=0;whiteSpace=wrap;html=1;fillColor=#D6ADFF;" vertex="1" parent="1">
          <mxGeometry x="450" y="20" width="430" height="290" as="geometry" />
        </mxCell>
        <mxCell id="dsTHRRMyEqFspH3dVMrk-329" value="" style="rounded=0;whiteSpace=wrap;html=1;fillColor=#9EB1FF;" vertex="1" parent="1">
          <mxGeometry y="20" width="430" height="290" as="geometry" />
        </mxCell>
        <mxCell id="dsTHRRMyEqFspH3dVMrk-2" value="Arceus X Neo" style="rounded=0;whiteSpace=wrap;html=1;shadow=0;flipV=0;flipH=0;" vertex="1" parent="1">
          <mxGeometry x="150" y="50" width="120" height="60" as="geometry" />
        </mxCell>
        <mxCell id="dsTHRRMyEqFspH3dVMrk-3" value="" style="shape=flexArrow;endArrow=classic;html=1;rounded=0;shadow=0;fillColor=#FFFFFF;" edge="1" parent="1">
          <mxGeometry width="50" height="50" relative="1" as="geometry">
            <mxPoint x="275" y="130" as="sourcePoint" />
            <mxPoint x="335" y="200" as="targetPoint" />
          </mxGeometry>
        </mxCell>
        <mxCell id="dsTHRRMyEqFspH3dVMrk-278" value="Codex" style="rounded=0;whiteSpace=wrap;html=1;shadow=0;flipV=0;flipH=0;" vertex="1" parent="1">
          <mxGeometry x="290" y="210" width="120" height="60" as="geometry" />
        </mxCell>
        <mxCell id="dsTHRRMyEqFspH3dVMrk-281" value="Vega X" style="rounded=0;whiteSpace=wrap;html=1;shadow=0;flipV=0;flipH=0;" vertex="1" parent="1">
          <mxGeometry x="20" y="210" width="120" height="60" as="geometry" />
        </mxCell>
        <mxCell id="dsTHRRMyEqFspH3dVMrk-283" value="" style="shape=flexArrow;endArrow=classic;html=1;rounded=0;fillColor=#FFFFFF;" edge="1" parent="1">
          <mxGeometry width="50" height="50" relative="1" as="geometry">
            <mxPoint x="529.5" y="130" as="sourcePoint" />
            <mxPoint x="529.5" y="200" as="targetPoint" />
          </mxGeometry>
        </mxCell>
        <mxCell id="dsTHRRMyEqFspH3dVMrk-285" value="AppleWare ios" style="rounded=0;whiteSpace=wrap;html=1;shadow=0;flipV=0;flipH=0;" vertex="1" parent="1">
          <mxGeometry x="470" y="50" width="120" height="60" as="geometry" />
        </mxCell>
        <mxCell id="dsTHRRMyEqFspH3dVMrk-286" value="&lt;br&gt;&lt;div&gt;Cubix ios&lt;/div&gt;" style="rounded=0;whiteSpace=wrap;html=1;shadow=0;flipV=0;flipH=0;" vertex="1" parent="1">
          <mxGeometry x="470" y="220" width="120" height="60" as="geometry" />
        </mxCell>
        <mxCell id="dsTHRRMyEqFspH3dVMrk-287" value="???" style="rounded=0;whiteSpace=wrap;html=1;shadow=0;flipV=0;flipH=0;" vertex="1" parent="1">
          <mxGeometry x="720" y="50" width="120" height="60" as="geometry" />
        </mxCell>
        <mxCell id="dsTHRRMyEqFspH3dVMrk-288" value="" style="shape=flexArrow;endArrow=classic;html=1;rounded=0;fillColor=#FFFFFF;" edge="1" parent="1">
          <mxGeometry width="50" height="50" relative="1" as="geometry">
            <mxPoint x="779.5" y="130" as="sourcePoint" />
            <mxPoint x="779.5" y="200" as="targetPoint" />
          </mxGeometry>
        </mxCell>
        <mxCell id="dsTHRRMyEqFspH3dVMrk-289" value="Delta" style="rounded=0;whiteSpace=wrap;html=1;shadow=0;flipV=0;flipH=0;" vertex="1" parent="1">
          <mxGeometry x="480" y="360" width="120" height="60" as="geometry" />
        </mxCell>
        <mxCell id="dsTHRRMyEqFspH3dVMrk-290" value="" style="shape=flexArrow;endArrow=classic;html=1;rounded=0;" edge="1" parent="1">
          <mxGeometry width="50" height="50" relative="1" as="geometry">
            <mxPoint x="700" y="249.5" as="sourcePoint" />
            <mxPoint x="610" y="249.5" as="targetPoint" />
          </mxGeometry>
        </mxCell>
        <mxCell id="dsTHRRMyEqFspH3dVMrk-291" value="Made up name for the api named after the Dev of it and it has never been shown." style="text;html=1;align=center;verticalAlign=middle;whiteSpace=wrap;rounded=0;" vertex="1" parent="1">
          <mxGeometry x="285" y="375" width="140" height="30" as="geometry" />
        </mxCell>
        <mxCell id="dsTHRRMyEqFspH3dVMrk-292" value="Most likely asylum api but cant really say." style="text;html=1;align=center;verticalAlign=middle;whiteSpace=wrap;rounded=0;" vertex="1" parent="1">
          <mxGeometry x="720" y="20" width="140" height="30" as="geometry" />
        </mxCell>
        <mxCell id="dsTHRRMyEqFspH3dVMrk-293" value="Binary API" style="rounded=0;whiteSpace=wrap;html=1;shadow=0;flipV=0;flipH=0;" vertex="1" parent="1">
          <mxGeometry x="160" y="360" width="120" height="60" as="geometry" />
        </mxCell>
        <mxCell id="dsTHRRMyEqFspH3dVMrk-294" value="AppleWare UNC is 91-92" style="text;html=1;align=center;verticalAlign=middle;whiteSpace=wrap;rounded=0;" vertex="1" parent="1">
          <mxGeometry x="550" y="120" width="140" height="30" as="geometry" />
        </mxCell>
        <mxCell id="dsTHRRMyEqFspH3dVMrk-296" value="" style="shape=flexArrow;endArrow=classic;html=1;rounded=0;shadow=0;fillColor=#FFFFFF;" edge="1" parent="1">
          <mxGeometry width="50" height="50" relative="1" as="geometry">
            <mxPoint x="150" y="130" as="sourcePoint" />
            <mxPoint x="80" y="200" as="targetPoint" />
          </mxGeometry>
        </mxCell>
        <mxCell id="dsTHRRMyEqFspH3dVMrk-298" value="" style="shape=flexArrow;endArrow=classic;html=1;rounded=0;shadow=0;fillColor=#FFFFFF;" edge="1" parent="1">
          <mxGeometry width="50" height="50" relative="1" as="geometry">
            <mxPoint x="280" y="450" as="sourcePoint" />
            <mxPoint x="340" y="520" as="targetPoint" />
          </mxGeometry>
        </mxCell>
        <mxCell id="dsTHRRMyEqFspH3dVMrk-299" value="" style="shape=flexArrow;endArrow=classic;html=1;rounded=0;shadow=0;fillColor=#FFFFFF;" edge="1" parent="1">
          <mxGeometry width="50" height="50" relative="1" as="geometry">
            <mxPoint x="160" y="450" as="sourcePoint" />
            <mxPoint x="90" y="520" as="targetPoint" />
          </mxGeometry>
        </mxCell>
        <mxCell id="dsTHRRMyEqFspH3dVMrk-300" value="FrostWare" style="rounded=0;whiteSpace=wrap;html=1;shadow=0;flipV=0;flipH=0;" vertex="1" parent="1">
          <mxGeometry x="305" y="530" width="120" height="60" as="geometry" />
        </mxCell>
        <mxCell id="dsTHRRMyEqFspH3dVMrk-301" value="FellProgramP2" style="rounded=0;whiteSpace=wrap;html=1;shadow=0;flipV=0;flipH=0;" vertex="1" parent="1">
          <mxGeometry x="20" y="530" width="120" height="60" as="geometry" />
        </mxCell>
        <mxCell id="dsTHRRMyEqFspH3dVMrk-302" value="These were all discontinued but had a good UNC of 99" style="text;html=1;align=center;verticalAlign=middle;whiteSpace=wrap;rounded=0;" vertex="1" parent="1">
          <mxGeometry x="160" y="530" width="140" height="30" as="geometry" />
        </mxCell>
        <mxCell id="dsTHRRMyEqFspH3dVMrk-305" value="100 UNC" style="text;html=1;align=center;verticalAlign=middle;whiteSpace=wrap;rounded=0;" vertex="1" parent="1">
          <mxGeometry x="145" y="190" width="140" height="30" as="geometry" />
        </mxCell>
        <mxCell id="dsTHRRMyEqFspH3dVMrk-306" value="Cubix ios is AppleWare api just with Cubix UI" style="text;html=1;align=center;verticalAlign=middle;whiteSpace=wrap;rounded=0;" vertex="1" parent="1">
          <mxGeometry x="570" y="280" width="140" height="30" as="geometry" />
        </mxCell>
        <mxCell id="dsTHRRMyEqFspH3dVMrk-307" value="Cubix UNC 99" style="text;html=1;align=center;verticalAlign=middle;whiteSpace=wrap;rounded=0;" vertex="1" parent="1">
          <mxGeometry x="600" y="170" width="140" height="30" as="geometry" />
        </mxCell>
        <mxCell id="dsTHRRMyEqFspH3dVMrk-308" value="Cubix" style="rounded=0;whiteSpace=wrap;html=1;shadow=0;flipV=0;flipH=0;" vertex="1" parent="1">
          <mxGeometry x="730" y="230" width="120" height="60" as="geometry" />
        </mxCell>
        <mxCell id="dsTHRRMyEqFspH3dVMrk-310" value="" style="shape=flexArrow;endArrow=classic;html=1;rounded=0;fillColor=#FFFFFF;" edge="1" parent="1">
          <mxGeometry width="50" height="50" relative="1" as="geometry">
            <mxPoint x="539.29" y="440" as="sourcePoint" />
            <mxPoint x="539.29" y="510" as="targetPoint" />
          </mxGeometry>
        </mxCell>
        <mxCell id="dsTHRRMyEqFspH3dVMrk-311" value="Evon" style="rounded=0;whiteSpace=wrap;html=1;shadow=0;flipV=0;flipH=0;" vertex="1" parent="1">
          <mxGeometry x="480" y="630" width="120" height="60" as="geometry" />
        </mxCell>
        <mxCell id="dsTHRRMyEqFspH3dVMrk-312" value="Delta and Delta ios are 100 UNC" style="text;html=1;align=center;verticalAlign=middle;whiteSpace=wrap;rounded=0;" vertex="1" parent="1">
          <mxGeometry x="570" y="460" width="140" height="30" as="geometry" />
        </mxCell>
        <mxCell id="dsTHRRMyEqFspH3dVMrk-313" value="Fluxus OG" style="rounded=0;whiteSpace=wrap;html=1;shadow=0;flipV=0;flipH=0;" vertex="1" parent="1">
          <mxGeometry x="200" y="630" width="120" height="60" as="geometry" />
        </mxCell>
        <mxCell id="dsTHRRMyEqFspH3dVMrk-314" value="Fluxus OG is 100 UNC but it discontinued&amp;nbsp;" style="text;html=1;align=center;verticalAlign=middle;whiteSpace=wrap;rounded=0;" vertex="1" parent="1">
          <mxGeometry x="330" y="650" width="140" height="30" as="geometry" />
        </mxCell>
        <mxCell id="dsTHRRMyEqFspH3dVMrk-315" value="Fluxus&amp;nbsp;" style="rounded=0;whiteSpace=wrap;html=1;shadow=0;flipV=0;flipH=0;" vertex="1" parent="1">
          <mxGeometry x="200" y="760" width="120" height="60" as="geometry" />
        </mxCell>
        <mxCell id="dsTHRRMyEqFspH3dVMrk-316" value="Fluxus is 91 UNC" style="text;html=1;align=center;verticalAlign=middle;whiteSpace=wrap;rounded=0;" vertex="1" parent="1">
          <mxGeometry x="330" y="775" width="140" height="30" as="geometry" />
        </mxCell>
        <mxCell id="dsTHRRMyEqFspH3dVMrk-317" value="Delta ios" style="rounded=0;whiteSpace=wrap;html=1;shadow=0;flipV=0;flipH=0;" vertex="1" parent="1">
          <mxGeometry x="480" y="540" width="120" height="60" as="geometry" />
        </mxCell>
        <mxCell id="dsTHRRMyEqFspH3dVMrk-318" value="Trigon&amp;nbsp;" style="rounded=0;whiteSpace=wrap;html=1;shadow=0;flipV=0;flipH=0;" vertex="1" parent="1">
          <mxGeometry x="480" y="760" width="120" height="60" as="geometry" />
        </mxCell>
        <mxCell id="dsTHRRMyEqFspH3dVMrk-319" value="Cryptic and Cacti are both 100 UNC may have came from the same api but Cacti Currently isnt getting updated&amp;nbsp;" style="text;html=1;align=center;verticalAlign=middle;whiteSpace=wrap;rounded=0;" vertex="1" parent="1">
          <mxGeometry x="420" y="960" width="200" height="30" as="geometry" />
        </mxCell>
        <mxCell id="dsTHRRMyEqFspH3dVMrk-321" value="Cryptic" style="rounded=0;whiteSpace=wrap;html=1;shadow=0;flipV=0;flipH=0;" vertex="1" parent="1">
          <mxGeometry x="360" y="860" width="120" height="60" as="geometry" />
        </mxCell>
        <mxCell id="dsTHRRMyEqFspH3dVMrk-322" value="Cacti" style="rounded=0;whiteSpace=wrap;html=1;shadow=0;flipV=0;flipH=0;" vertex="1" parent="1">
          <mxGeometry x="540" y="860" width="120" height="60" as="geometry" />
        </mxCell>
        <mxCell id="dsTHRRMyEqFspH3dVMrk-323" value="Both Evon and Trigon are like 80 smth UNC" style="text;html=1;align=center;verticalAlign=middle;whiteSpace=wrap;rounded=0;" vertex="1" parent="1">
          <mxGeometry x="590" y="720" width="140" height="30" as="geometry" />
        </mxCell>
      </root>
    </mxGraphModel>
  </diagram>
</mxfile>
